# xmcd CD database file
#
# Track frame offsets:
#	150
#	13780
#	57505
#	77540
#	99352
#	117434
#	143315
#	168211
#	185316
#	201585
#	240517
#	256633
#	272761
#	298483
#	326760
#
# Disc length: 4611 seconds
#
# Revision: 0
# Processed by: cddbd v1.5.2PL0 Copyright (c) Steve Scherf et al.
# Submitted via: CDex 1.51
#
DISCID=d112010f
DTITLE=Chesky Records - Live From Studio A
DYEAR=2006
DGENRE=Jazz
TTITLE0=John Pizzarelli With Bucky Pizzarelli - Pick Yourself Up
TTITLE1=McCoy Tyner - Recorda Me
TTITLE2=John Pizzarelli With Bucky Pizzarelli - Zoot Walked In - morning Fun
TTITLE3=Phil Woods - Charles Christofer
TTITLE4=Ana Caram - Anos Duorados
TTITLE5=Clark Terry - Little Jazz
TTITLE6=Paquito D'Rivera - Tico! Tico!
TTITLE7=Kenny Rankin - 'Round Midnight
TTITLE8=Luiz Bonfa - Samba De Orfeo
TTITLE9=Phil Woods - Loose Change
TTITLE10=Herbie Mann - Gabriella's Song
TTITLE11=Peggy Lee - Why Don't You Do Right
TTITLE12=Tom Harrell - Suite Dreams
TTITLE13=Red Rodney - Confirmation
TTITLE14=Mongo Santanaria - Cuco Y Olga
EXTD=YEAR: 2006
EXTT0=
EXTT1=
EXTT2=
EXTT3=
EXTT4=
EXTT5=
EXTT6=
EXTT7=
EXTT8=
EXTT9=
EXTT10=
EXTT11=
EXTT12=
EXTT13=
EXTT14=
PLAYORDER=
